<svg width="21" height="22" viewBox="0 0 21 22" fill="none" xmlns="http://www.w3.org/2000/svg">
<g clip-path="url(#clip0_1_292)">
<path d="M20.6719 11.3906C20.6719 17.0084 16.1178 21.5625 10.5 21.5625C4.88221 21.5625 0.328125 17.0084 0.328125 11.3906C0.328125 5.77284 4.88221 1.21875 10.5 1.21875C16.1178 1.21875 20.6719 5.77284 20.6719 11.3906ZM9.32343 16.7766L16.8703 9.22968C17.1266 8.97341 17.1266 8.55788 16.8703 8.30162L15.9422 7.37355C15.686 7.11725 15.2704 7.11725 15.0141 7.37355L8.85938 13.5283L5.98586 10.6548C5.7296 10.3985 5.31407 10.3985 5.05776 10.6548L4.1297 11.5828C3.87343 11.8391 3.87343 12.2546 4.1297 12.5109L8.39532 16.7765C8.65163 17.0328 9.06712 17.0328 9.32343 16.7766Z" fill="white"/>
</g>
<defs>
<clipPath id="clip0_1_292">
<rect width="21" height="21" fill="white" transform="translate(0 0.890625)"/>
</clipPath>
</defs>
</svg>
