<svg xmlns="http://www.w3.org/2000/svg" id="a" viewBox="0 0 1142 435"><defs><style>.b{fill:#303030;}.c{fill:#f2e670;}.d{fill:#f3cb31;}.e{fill:#fdf163;}</style></defs><rect class="c" x="877.03" y="46.75" width="119.24" height="119.24"></rect><path class="d" d="M996.27,46.75h59.25c33.11,0,59.98,26.88,59.98,59.98v59.25h-119.24V46.75h0Z"></path><rect class="e" x="996.27" y="165.99" width="119.24" height="119.24"></rect><g><path class="b" d="M72.13,48.16v8.49h-20.96v57.73h-9.9V56.65h-9.13v-8.61h9.13v-5.79c0-7.28,1.74-12.81,5.21-16.59,3.47-3.77,8.42-5.66,14.85-5.66,2.32,0,4.31,.13,5.98,.39,1.67,.26,3.32,.69,4.95,1.29v8.61c-1.8-.51-3.43-.92-4.89-1.22-1.46-.3-3.04-.45-4.76-.45-7.71,0-11.57,4.72-11.57,14.14v5.4h21.09Z"></path><path class="b" d="M135.72,94.51c-1.76,4.24-4.18,7.95-7.26,11.12-3.09,3.17-6.77,5.68-11.06,7.52-4.29,1.84-8.92,2.76-13.89,2.76s-9.56-.92-13.76-2.76c-4.2-1.84-7.84-4.33-10.93-7.46-3.09-3.13-5.49-6.79-7.2-10.99-1.72-4.2-2.57-8.66-2.57-13.37s.86-9.19,2.57-13.44c1.71-4.24,4.11-7.95,7.2-11.12,3.09-3.17,6.75-5.68,10.99-7.52,4.24-1.84,8.89-2.76,13.95-2.76s9.58,.92,13.82,2.76c4.24,1.84,7.91,4.33,10.99,7.46,3.09,3.13,5.48,6.79,7.2,10.99,1.71,4.2,2.57,8.66,2.57,13.37s-.88,9.19-2.64,13.44Zm-9.39-23.38c-1.24-3.16-2.98-5.92-5.21-8.27-2.23-2.35-4.84-4.21-7.84-5.58-3-1.37-6.26-2.05-9.77-2.05s-6.9,.66-9.9,1.99c-3,1.33-5.55,3.16-7.65,5.51-2.1,2.35-3.75,5.09-4.95,8.21-1.2,3.12-1.8,6.48-1.8,10.07s.62,6.97,1.87,10.13c1.24,3.16,2.96,5.9,5.14,8.21,2.19,2.31,4.78,4.15,7.78,5.51,3,1.37,6.26,2.05,9.77,2.05s6.9-.66,9.9-1.99c3-1.33,5.57-3.14,7.71-5.45,2.14-2.31,3.81-5.02,5.01-8.14,1.2-3.12,1.8-6.48,1.8-10.07s-.62-6.97-1.86-10.13Z"></path><path class="b" d="M155.84,114.38h-9.9V47.9h9.9v17.36c1.2-2.74,2.7-5.27,4.5-7.59s3.86-4.31,6.17-5.98,4.84-2.94,7.59-3.79c2.74-.86,5.7-1.24,8.87-1.16v10.67h-.77c-3.6,0-7.01,.64-10.22,1.93-3.21,1.29-6.02,3.21-8.42,5.79-2.4,2.57-4.29,5.77-5.66,9.58-1.37,3.82-2.06,8.21-2.06,13.18v26.49Z"></path><path class="b" d="M244.49,54.59c1.5-1.63,3.19-3.04,5.08-4.24,1.89-1.2,4.01-2.14,6.37-2.83,2.36-.69,4.99-1.03,7.91-1.03,7.71,0,13.76,2.38,18.13,7.14,4.37,4.76,6.56,11.3,6.56,19.61v41.14h-9.9v-38.83c0-6.43-1.52-11.38-4.56-14.85-3.04-3.47-7.26-5.21-12.66-5.21-2.49,0-4.84,.45-7.07,1.35-2.23,.9-4.18,2.23-5.85,3.99-1.67,1.76-3,3.92-3.99,6.49-.99,2.57-1.48,5.49-1.48,8.74v38.32h-9.77v-39.09c0-6.26-1.52-11.12-4.56-14.59-3.04-3.47-7.22-5.21-12.54-5.21-2.66,0-5.1,.51-7.33,1.54-2.23,1.03-4.18,2.49-5.85,4.37-1.67,1.89-2.98,4.09-3.92,6.62-.95,2.53-1.41,5.34-1.41,8.42v37.93h-9.9V47.9h9.9v11.19c1.11-1.63,2.33-3.21,3.66-4.76,1.33-1.54,2.85-2.89,4.56-4.05,1.71-1.16,3.64-2.08,5.79-2.76,2.14-.69,4.63-1.03,7.46-1.03,5.4,0,9.86,1.27,13.37,3.79,3.51,2.53,6.17,5.68,7.97,9.45,1.2-1.8,2.55-3.51,4.05-5.14Z"></path><path class="b" d="M313.03,57.1c-3.21,.9-6.37,2.08-9.45,3.54l-2.96-8.1c3.68-1.71,7.41-3.06,11.19-4.05,3.77-.98,8.1-1.48,12.99-1.48,9.08,0,16.07,2.25,20.96,6.75s7.33,11.17,7.33,19.99v40.63h-9.52v-10.03c-2.32,3-5.42,5.66-9.32,7.97-3.9,2.32-8.81,3.47-14.72,3.47-3.09,0-6.11-.43-9.06-1.29-2.96-.86-5.62-2.16-7.97-3.92-2.36-1.76-4.24-3.92-5.66-6.49-1.41-2.57-2.12-5.61-2.12-9.13s.69-6.62,2.06-9.32c1.37-2.7,3.32-4.95,5.85-6.75,2.53-1.8,5.53-3.17,9-4.11,3.47-.94,7.31-1.41,11.51-1.41s8.01,.26,11.19,.77c3.17,.51,6.26,1.2,9.26,2.06v-2.31c0-6-1.74-10.52-5.21-13.57-3.47-3.04-8.34-4.56-14.59-4.56-3.94,0-7.52,.45-10.74,1.35Zm-3.17,27.32c-3.33,2.49-5,5.87-5,10.16,0,2.14,.45,4.03,1.35,5.66,.9,1.63,2.11,3.02,3.65,4.18,1.54,1.16,3.31,2.04,5.32,2.64,2.01,.6,4.12,.9,6.34,.9,3.07,0,5.96-.45,8.65-1.35,2.69-.9,5.04-2.14,7.05-3.73,2.01-1.58,3.59-3.47,4.74-5.66,1.15-2.19,1.73-4.61,1.73-7.26v-6.43c-2.48-.69-5.32-1.33-8.52-1.93-3.21-.6-6.86-.9-10.96-.9-6.24,0-11.02,1.24-14.35,3.73Z"></path><path class="b" d="M376.48,111.16c-3.43-2.06-6.39-4.59-8.87-7.59-2.49-3-4.41-6.41-5.78-10.22-1.37-3.81-2.06-7.82-2.06-12.02,0-4.71,.86-9.19,2.57-13.44,1.71-4.24,4.09-7.95,7.14-11.12,3.04-3.17,6.64-5.68,10.8-7.52,4.16-1.84,8.68-2.76,13.57-2.76,3.17,0,6.04,.3,8.61,.9,2.57,.6,4.93,1.44,7.07,2.51,2.14,1.07,4.11,2.34,5.91,3.79,1.8,1.46,3.47,3,5.01,4.63l-6.56,6.94c-2.66-2.74-5.55-5.1-8.68-7.07-3.13-1.97-6.97-2.96-11.51-2.96-3.34,0-6.47,.66-9.39,1.99-2.92,1.33-5.44,3.16-7.59,5.51-2.14,2.35-3.81,5.09-5.01,8.21-1.2,3.12-1.8,6.48-1.8,10.07s.62,6.97,1.86,10.13c1.24,3.16,2.96,5.92,5.14,8.27s4.76,4.19,7.71,5.52c2.96,1.33,6.19,1.99,9.71,1.99,4.29,0,8.08-.94,11.38-2.83,3.3-1.88,6.28-4.24,8.94-7.07l6.3,5.91c-3.26,3.61-6.84,6.6-10.74,8.94-3.9,2.35-8.72,3.7-14.46,4.04l-8.49,18.39-9.64-4.37,10.03-14.66c-4.03-.69-7.76-2.06-11.19-4.11Z"></path><path class="b" d="M440.32,57.1c-3.21,.9-6.37,2.08-9.45,3.54l-2.96-8.1c3.68-1.71,7.41-3.06,11.19-4.05,3.77-.98,8.1-1.48,12.99-1.48,9.08,0,16.07,2.25,20.96,6.75s7.33,11.17,7.33,19.99v40.63h-9.52v-10.03c-2.32,3-5.42,5.66-9.32,7.97-3.9,2.32-8.81,3.47-14.72,3.47-3.09,0-6.11-.43-9.06-1.29-2.96-.86-5.62-2.16-7.97-3.92-2.36-1.76-4.24-3.92-5.66-6.49-1.41-2.57-2.12-5.61-2.12-9.13s.69-6.62,2.06-9.32c1.37-2.7,3.32-4.95,5.85-6.75,2.53-1.8,5.53-3.17,9-4.11,3.47-.94,7.31-1.41,11.51-1.41s8.01,.26,11.19,.77c3.17,.51,6.26,1.2,9.26,2.06v-2.31c0-6-1.74-10.52-5.21-13.57-3.47-3.04-8.34-4.56-14.59-4.56-3.94,0-7.52,.45-10.74,1.35Zm-3.17,27.32c-3.33,2.49-5,5.87-5,10.16,0,2.14,.45,4.03,1.35,5.66,.9,1.63,2.11,3.02,3.65,4.18,1.54,1.16,3.31,2.04,5.32,2.64,2.01,.6,4.12,.9,6.34,.9,3.07,0,5.96-.45,8.65-1.35,2.69-.9,5.04-2.14,7.05-3.73,2.01-1.58,3.59-3.47,4.74-5.66,1.15-2.19,1.73-4.61,1.73-7.26v-6.43c-2.48-.69-5.32-1.33-8.52-1.93-3.21-.6-6.86-.9-10.96-.9-6.24,0-11.02,1.24-14.35,3.73Zm32.67-49.63c-1.89,2.06-4.37,3.09-7.46,3.09-1.46,0-2.96-.25-4.5-.75s-3.09-1.07-4.63-1.69c-1.54-.63-3-1.21-4.37-1.75-1.37-.54-2.62-.82-3.73-.82-1.72,0-3.02,.46-3.92,1.39-.9,.92-1.82,2.52-2.77,4.79l-6.04-1.67c1.29-4.89,2.87-8.36,4.76-10.41,1.88-2.06,4.37-3.09,7.46-3.09,1.46,0,2.96,.27,4.5,.82s3.09,1.13,4.63,1.75c1.54,.63,3,1.19,4.37,1.69,1.37,.5,2.61,.75,3.73,.75,1.71,0,3.02-.46,3.92-1.38,.9-.92,1.82-2.52,2.76-4.79l6.04,1.67c-1.29,4.89-2.87,8.36-4.76,10.42Z"></path><path class="b" d="M553.73,94.51c-1.76,4.24-4.18,7.95-7.27,11.12-3.09,3.17-6.77,5.68-11.06,7.52-4.29,1.84-8.92,2.76-13.89,2.76s-9.56-.92-13.76-2.76c-4.2-1.84-7.84-4.33-10.93-7.46-3.09-3.13-5.49-6.79-7.2-10.99-1.72-4.2-2.57-8.66-2.57-13.37s.86-9.19,2.57-13.44c1.71-4.24,4.11-7.95,7.2-11.12,3.09-3.17,6.75-5.68,10.99-7.52,4.24-1.84,8.89-2.76,13.95-2.76s9.58,.92,13.82,2.76c4.24,1.84,7.91,4.33,10.99,7.46,3.09,3.13,5.48,6.79,7.2,10.99,1.71,4.2,2.57,8.66,2.57,13.37s-.88,9.19-2.64,13.44Zm-9.39-23.38c-1.24-3.16-2.98-5.92-5.21-8.27-2.23-2.35-4.84-4.21-7.84-5.58-3-1.37-6.26-2.05-9.77-2.05s-6.9,.66-9.9,1.99c-3,1.33-5.55,3.16-7.65,5.51-2.1,2.35-3.75,5.09-4.95,8.21-1.2,3.12-1.8,6.48-1.8,10.07s.62,6.97,1.86,10.13c1.24,3.16,2.96,5.9,5.14,8.21s4.78,4.15,7.78,5.51c3,1.37,6.26,2.05,9.77,2.05s6.9-.66,9.9-1.99c3-1.33,5.57-3.14,7.72-5.45,2.14-2.31,3.81-5.02,5.01-8.14,1.2-3.12,1.8-6.48,1.8-10.07s-.62-6.97-1.86-10.13Z"></path><path class="b" d="M600.85,94.38c1.37,2.79,3.13,5.14,5.27,7.07,2.14,1.93,4.54,3.39,7.2,4.37,2.66,.99,5.44,1.48,8.36,1.48,4.63,0,8.59-.86,11.89-2.57,3.3-1.71,6.32-3.99,9.07-6.82l6.17,5.53c-3.34,3.77-7.16,6.79-11.44,9.06-4.29,2.27-9.6,3.41-15.94,3.41-4.54,0-8.83-.83-12.86-2.51-4.03-1.67-7.55-4.03-10.57-7.07-3.02-3.04-5.42-6.71-7.2-10.99-1.78-4.29-2.67-9-2.67-14.14,0-4.8,.79-9.32,2.38-13.56,1.58-4.24,3.79-7.93,6.62-11.06,2.83-3.13,6.19-5.59,10.09-7.39,3.9-1.8,8.16-2.7,12.79-2.7,4.89,0,9.26,.92,13.12,2.76,3.86,1.84,7.11,4.35,9.77,7.52,2.66,3.17,4.67,6.9,6.04,11.19,1.37,4.29,2.06,8.87,2.06,13.76v1.41c0,.51-.04,1.07-.13,1.67h-52.59c.34,3.6,1.2,6.79,2.57,9.58Zm39.99-16.91c-.26-3-.87-5.87-1.85-8.61-.98-2.74-2.34-5.14-4.09-7.2-1.75-2.06-3.88-3.71-6.39-4.95-2.52-1.24-5.43-1.86-8.76-1.86-2.9,0-5.58,.58-8.05,1.74s-4.64,2.74-6.52,4.76c-1.87,2.02-3.41,4.39-4.6,7.14-1.19,2.74-1.96,5.74-2.3,9h42.56Z"></path><path class="b" d="M714.83,54.59c1.5-1.63,3.19-3.04,5.08-4.24,1.88-1.2,4.01-2.14,6.36-2.83,2.36-.69,4.99-1.03,7.91-1.03,7.71,0,13.76,2.38,18.13,7.14,4.37,4.76,6.56,11.3,6.56,19.61v41.14h-9.9v-38.83c0-6.43-1.52-11.38-4.56-14.85-3.04-3.47-7.26-5.21-12.67-5.21-2.49,0-4.84,.45-7.07,1.35-2.23,.9-4.18,2.23-5.85,3.99-1.67,1.76-3,3.92-3.99,6.49-.99,2.57-1.48,5.49-1.48,8.74v38.32h-9.77v-39.09c0-6.26-1.52-11.12-4.56-14.59-3.04-3.47-7.22-5.21-12.54-5.21-2.66,0-5.1,.51-7.33,1.54s-4.18,2.49-5.85,4.37c-1.67,1.89-2.98,4.09-3.92,6.62-.94,2.53-1.41,5.34-1.41,8.42v37.93h-9.9V47.9h9.9v11.19c1.11-1.63,2.33-3.21,3.66-4.76,1.33-1.54,2.85-2.89,4.56-4.05,1.71-1.16,3.64-2.08,5.78-2.76,2.14-.69,4.63-1.03,7.46-1.03,5.4,0,9.86,1.27,13.37,3.79,3.51,2.53,6.17,5.68,7.97,9.45,1.2-1.8,2.55-3.51,4.05-5.14Z"></path></g><g><path class="b" d="M165.75,408.93v-25.86c-6.33,8.52-13.95,15.52-22.87,21.01-8.92,5.49-20.16,8.24-33.71,8.24-10.62,0-20.9-2.03-30.83-6.1-9.94-4.07-18.75-10.11-26.43-18.13-7.68-8.01-13.84-17.84-18.47-29.48-4.63-11.63-6.95-25.01-6.95-40.15v-.68c0-15.13,2.31-28.51,6.95-40.15,4.63-11.63,10.73-21.46,18.3-29.48,7.57-8.02,16.32-14.06,26.26-18.13,9.94-4.07,20.33-6.1,31.17-6.1,13.78,0,25.13,2.69,34.05,8.07,8.92,5.38,16.43,11.66,22.53,18.83v-89.24h51.5v247.34h-51.5Zm.68-91.14c0-7.51-1.19-14.38-3.56-20.64-2.37-6.25-5.54-11.59-9.49-16.03-3.95-4.44-8.59-7.85-13.89-10.23-5.31-2.39-11.01-3.58-17.11-3.58s-11.81,1.2-17.11,3.58c-5.31,2.39-9.99,5.8-14.06,10.23-4.07,4.44-7.29,9.72-9.66,15.86-2.37,6.14-3.56,13.08-3.56,20.81v.68c0,7.51,1.19,14.39,3.56,20.64,2.37,6.25,5.59,11.59,9.66,16.03,4.07,4.44,8.75,7.85,14.06,10.23,5.31,2.39,11.01,3.58,17.11,3.58s11.8-1.19,17.11-3.58c5.31-2.39,9.94-5.8,13.89-10.23,3.95-4.44,7.12-9.78,9.49-16.03,2.37-6.25,3.56-13.13,3.56-20.64v-.68Z"></path><path class="b" d="M342.61,408.93v-19.65c-6.33,7-13.89,12.6-22.7,16.77-8.81,4.18-19.54,6.27-32.19,6.27-8.59,0-16.66-1.19-24.23-3.56-7.57-2.37-14.18-5.93-19.82-10.67-5.65-4.74-10.11-10.56-13.38-17.45-3.28-6.89-4.91-14.85-4.91-23.89v-.68c0-9.94,1.8-18.52,5.42-25.75,3.61-7.23,8.64-13.21,15.08-17.96,6.44-4.74,14.11-8.3,23.04-10.67,8.92-2.37,18.8-3.56,29.65-3.56,9.26,0,17.33,.68,24.23,2.03,6.89,1.36,13.61,3.17,20.16,5.42v-3.05c0-10.84-3.28-19.09-9.83-24.73-6.55-5.64-16.26-8.47-29.14-8.47-9.94,0-18.69,.85-26.26,2.54-7.57,1.69-15.53,4.12-23.89,7.28l-12.88-39.3c9.94-4.29,20.33-7.79,31.17-10.5s23.94-4.07,39.3-4.07c28.23,0,48.79,6.89,61.67,20.67,12.88,13.78,19.31,32.98,19.31,57.6v105.38h-49.81Zm1.02-73.19c-4.52-2.03-9.54-3.67-15.08-4.91-5.54-1.24-11.47-1.86-17.79-1.86-11.07,0-19.77,2.15-26.09,6.44-6.33,4.29-9.49,10.5-9.49,18.64v.68c0,7,2.59,12.42,7.79,16.26,5.19,3.84,11.97,5.76,20.33,5.76,12.2,0,21.97-2.93,29.31-8.81,7.34-5.87,11.01-13.55,11.01-23.04v-9.15Z"></path><path class="b" d="M540.82,408.93v-25.86c-6.33,8.52-13.95,15.52-22.87,21.01-8.93,5.49-20.16,8.24-33.71,8.24-10.62,0-20.9-2.03-30.83-6.1-9.94-4.07-18.75-10.11-26.43-18.13-7.68-8.01-13.84-17.84-18.47-29.48-4.63-11.63-6.95-25.01-6.95-40.15v-.68c0-15.13,2.31-28.51,6.95-40.15,4.63-11.63,10.73-21.46,18.3-29.48,7.56-8.02,16.32-14.06,26.26-18.13,9.94-4.07,20.33-6.1,31.17-6.1,13.77,0,25.12,2.69,34.05,8.07,8.92,5.38,16.43,11.66,22.53,18.83v-89.24h51.5v247.34h-51.5Zm.68-91.14c0-7.51-1.19-14.38-3.56-20.64-2.37-6.25-5.54-11.59-9.49-16.03-3.96-4.44-8.59-7.85-13.89-10.23-5.31-2.39-11.01-3.58-17.11-3.58s-11.81,1.2-17.11,3.58c-5.31,2.39-10,5.8-14.06,10.23-4.07,4.44-7.28,9.72-9.66,15.86-2.37,6.14-3.56,13.08-3.56,20.81v.68c0,7.51,1.19,14.39,3.56,20.64,2.37,6.25,5.59,11.59,9.66,16.03,4.07,4.44,8.75,7.85,14.06,10.23,5.3,2.39,11.01,3.58,17.11,3.58s11.8-1.19,17.11-3.58c5.3-2.39,9.94-5.8,13.89-10.23,3.95-4.44,7.11-9.78,9.49-16.03,2.37-6.25,3.56-13.13,3.56-20.64v-.68Z"></path><path class="b" d="M791.55,355.23c-4.97,11.41-11.86,21.4-20.67,29.99-8.81,8.59-19.2,15.36-31.17,20.33-11.97,4.97-25.07,7.45-39.3,7.45s-26.99-2.43-38.96-7.28c-11.98-4.86-22.31-11.52-31-19.99-8.7-8.47-15.53-18.41-20.5-29.82-4.97-11.4-7.45-23.66-7.45-36.76v-.68c0-13.1,2.48-25.35,7.45-36.76,4.97-11.4,11.86-21.4,20.67-29.99,8.81-8.58,19.2-15.36,31.17-20.33,11.97-4.97,25.07-7.45,39.3-7.45s26.99,2.43,38.96,7.28c11.97,4.86,22.3,11.52,31,19.99,8.69,8.47,15.53,18.41,20.5,29.82,4.97,11.41,7.45,23.66,7.45,36.76v.68c0,13.1-2.49,25.36-7.45,36.76Zm-43.37-36.76c0-6.78-1.13-13.16-3.39-19.14-2.26-5.98-5.54-11.29-9.83-15.92-4.29-4.63-9.38-8.3-15.25-11.01-5.88-2.71-12.31-4.07-19.31-4.07-7.45,0-14.06,1.3-19.82,3.9-5.76,2.6-10.67,6.16-14.74,10.67-4.07,4.52-7.17,9.77-9.32,15.76-2.15,5.99-3.22,12.37-3.22,19.14v.68c0,6.78,1.13,13.16,3.39,19.14,2.26,5.99,5.53,11.3,9.83,15.92,4.29,4.63,9.32,8.3,15.08,11.01s12.25,4.07,19.48,4.07,14.06-1.3,19.82-3.9c5.76-2.59,10.67-6.15,14.74-10.67,4.06-4.52,7.17-9.77,9.32-15.76,2.14-5.98,3.22-12.37,3.22-19.14v-.68Z"></path><path class="b" d="M937.07,379.96c-3.51,7.34-8.42,13.38-14.74,18.13-6.33,4.74-13.72,8.3-22.19,10.67s-17.57,3.56-27.28,3.56c-12.88,0-26.04-2.2-39.47-6.61-13.44-4.41-26.26-11.35-38.46-20.84l22.02-33.88c9.94,7.23,19.82,12.65,29.65,16.26,9.82,3.62,19.03,5.42,27.61,5.42,7.45,0,12.93-1.24,16.43-3.73,3.5-2.48,5.25-5.76,5.25-9.83v-.68c0-2.71-1.02-5.08-3.05-7.11-2.03-2.03-4.8-3.78-8.3-5.25-3.51-1.47-7.51-2.88-12.03-4.24-4.52-1.36-9.27-2.82-14.23-4.4-6.33-1.81-12.71-4.01-19.14-6.61-6.44-2.59-12.26-5.98-17.45-10.17-5.2-4.18-9.43-9.32-12.71-15.42-3.28-6.1-4.91-13.55-4.91-22.36v-.68c0-9.26,1.75-17.45,5.25-24.56,3.5-7.11,8.24-13.16,14.23-18.13,5.98-4.97,12.99-8.69,21.01-11.18,8.02-2.48,16.66-3.73,25.92-3.73,11.52,0,23.21,1.86,35.07,5.59,11.86,3.73,22.75,8.87,32.7,15.42l-19.65,35.58c-9.04-5.19-17.85-9.32-26.43-12.37-8.59-3.05-16.15-4.57-22.7-4.57s-11.07,1.19-14.23,3.56c-3.17,2.37-4.74,5.37-4.74,8.98v.68c0,2.49,1.02,4.69,3.05,6.61,2.03,1.92,4.74,3.73,8.13,5.42s7.28,3.34,11.69,4.91c4.4,1.58,9.09,3.16,14.06,4.74,6.32,2.03,12.76,4.46,19.31,7.28,6.55,2.83,12.42,6.27,17.62,10.33,5.19,4.07,9.49,9.04,12.88,14.91,3.39,5.88,5.08,12.99,5.08,21.35v.68c0,10.16-1.75,18.92-5.25,26.26Z"></path></g></svg>