<svg xmlns="http://www.w3.org/2000/svg" id="a" viewBox="0 0 1458 435"><defs><style>.b{fill:#303030;}.c{fill:#d0484d;}.d{fill:#d25a5f;}.e{fill:#cf4045;}</style></defs><rect class="d" x="1346.55" y="147.46" width="102.5" height="102.5"></rect><path class="e" d="M1346.55,44.96h50.94c28.46,0,51.56,23.1,51.56,51.56v50.94h-102.5V44.96h0Z"></path><rect class="c" x="1244.05" y="44.96" width="102.5" height="102.5"></rect><g><path class="b" d="M48.18,49.95v7.29H30.17v49.63h-8.51V57.24h-7.85v-7.41h7.85v-4.97c0-6.26,1.49-11.01,4.48-14.26,2.98-3.24,7.24-4.86,12.77-4.86,1.99,0,3.7,.11,5.14,.33,1.44,.22,2.85,.59,4.25,1.11v7.41c-1.55-.44-2.95-.79-4.2-1.05-1.25-.26-2.62-.39-4.09-.39-6.63,0-9.95,4.05-9.95,12.16v4.64h18.13Z"></path><path class="b" d="M102.84,89.79c-1.51,3.65-3.59,6.84-6.25,9.56-2.65,2.73-5.82,4.88-9.5,6.47-3.69,1.58-7.67,2.38-11.94,2.38s-8.22-.79-11.83-2.38c-3.61-1.58-6.74-3.72-9.4-6.41-2.65-2.69-4.72-5.84-6.19-9.45-1.47-3.61-2.21-7.44-2.21-11.5s.74-7.9,2.21-11.55c1.47-3.65,3.54-6.83,6.19-9.56,2.65-2.73,5.8-4.88,9.45-6.47,3.65-1.58,7.64-2.38,11.99-2.38s8.23,.79,11.88,2.38c3.65,1.58,6.8,3.72,9.45,6.41,2.65,2.69,4.71,5.84,6.19,9.45,1.47,3.61,2.21,7.44,2.21,11.5s-.76,7.9-2.27,11.55Zm-8.07-20.1c-1.07-2.72-2.56-5.09-4.48-7.11-1.92-2.02-4.16-3.62-6.74-4.8-2.58-1.18-5.38-1.76-8.4-1.76s-5.93,.57-8.51,1.71c-2.58,1.14-4.77,2.72-6.58,4.74-1.81,2.02-3.22,4.37-4.25,7.06-1.03,2.68-1.55,5.57-1.55,8.65s.53,5.99,1.6,8.71c1.07,2.72,2.54,5.07,4.42,7.06,1.88,1.98,4.11,3.56,6.69,4.74,2.58,1.18,5.38,1.76,8.4,1.76s5.93-.57,8.51-1.71c2.58-1.14,4.79-2.7,6.63-4.69,1.84-1.98,3.28-4.32,4.31-7,1.03-2.68,1.55-5.57,1.55-8.65s-.54-5.99-1.6-8.71Z"></path><path class="b" d="M120.14,106.87h-8.51V49.72h8.51v14.92c1.03-2.36,2.32-4.53,3.87-6.52,1.55-1.99,3.32-3.7,5.31-5.14,1.99-1.44,4.16-2.52,6.52-3.26,2.36-.74,4.9-1.07,7.63-.99v9.17h-.66c-3.09,0-6.02,.55-8.79,1.66-2.76,1.1-5.18,2.76-7.24,4.97-2.06,2.21-3.69,4.96-4.86,8.23-1.18,3.28-1.77,7.06-1.77,11.33v22.77Z"></path><path class="b" d="M196.35,55.47c1.29-1.4,2.74-2.62,4.37-3.65,1.62-1.03,3.44-1.84,5.47-2.43,2.03-.59,4.29-.88,6.8-.88,6.63,0,11.83,2.04,15.58,6.13s5.64,9.71,5.64,16.86v35.37h-8.51v-33.38c0-5.53-1.31-9.78-3.92-12.77-2.62-2.98-6.25-4.48-10.89-4.48-2.14,0-4.16,.39-6.08,1.16-1.92,.77-3.59,1.92-5.03,3.43-1.44,1.51-2.58,3.37-3.43,5.58-.85,2.21-1.27,4.72-1.27,7.52v32.94h-8.4v-33.6c0-5.38-1.31-9.56-3.92-12.54-2.62-2.98-6.21-4.48-10.78-4.48-2.28,0-4.38,.44-6.3,1.33-1.92,.88-3.59,2.14-5.03,3.76-1.44,1.62-2.56,3.52-3.37,5.69-.81,2.17-1.22,4.59-1.22,7.24v32.61h-8.51V49.72h8.51v9.62c.96-1.4,2.01-2.76,3.15-4.09,1.14-1.33,2.45-2.49,3.92-3.48,1.47-.99,3.13-1.79,4.97-2.38,1.84-.59,3.98-.88,6.41-.88,4.64,0,8.47,1.09,11.5,3.26,3.02,2.17,5.31,4.88,6.85,8.12,1.03-1.55,2.19-3.02,3.48-4.42Z"></path><path class="b" d="M255.26,57.63c-2.76,.77-5.47,1.79-8.12,3.04l-2.54-6.96c3.17-1.47,6.37-2.63,9.62-3.48,3.24-.85,6.96-1.27,11.16-1.27,7.81,0,13.82,1.93,18.02,5.8,4.2,3.87,6.3,9.6,6.3,17.19v34.93h-8.18v-8.62c-1.99,2.58-4.66,4.86-8.01,6.85-3.35,1.99-7.57,2.98-12.66,2.98-2.65,0-5.25-.37-7.79-1.11-2.54-.74-4.83-1.86-6.85-3.37-2.03-1.51-3.65-3.37-4.86-5.58s-1.82-4.83-1.82-7.85,.59-5.69,1.77-8.01c1.18-2.32,2.85-4.25,5.03-5.8,2.17-1.55,4.75-2.72,7.74-3.54,2.98-.81,6.28-1.22,9.89-1.22s6.89,.22,9.62,.66c2.73,.44,5.38,1.03,7.96,1.77v-1.99c0-5.16-1.49-9.04-4.48-11.66-2.98-2.61-7.17-3.92-12.54-3.92-3.39,0-6.47,.39-9.23,1.16Zm-2.72,23.49c-2.87,2.14-4.3,5.05-4.3,8.73,0,1.84,.38,3.46,1.16,4.86,.77,1.4,1.82,2.6,3.14,3.59,1.32,1,2.84,1.75,4.57,2.27,1.73,.52,3.54,.77,5.45,.77,2.64,0,5.12-.39,7.44-1.16,2.31-.77,4.33-1.84,6.06-3.21,1.73-1.36,3.08-2.98,4.08-4.86,.99-1.88,1.49-3.96,1.49-6.25v-5.53c-2.13-.59-4.57-1.14-7.33-1.66-2.76-.51-5.89-.77-9.42-.77-5.36,0-9.47,1.07-12.34,3.21Z"></path><path class="b" d="M309.8,104.1c-2.95-1.77-5.49-3.94-7.63-6.52-2.14-2.58-3.79-5.51-4.97-8.79-1.18-3.28-1.77-6.72-1.77-10.33,0-4.05,.74-7.9,2.21-11.55,1.47-3.65,3.52-6.83,6.13-9.56,2.61-2.73,5.71-4.88,9.28-6.47,3.57-1.58,7.46-2.38,11.66-2.38,2.72,0,5.2,.26,7.41,.77,2.21,.52,4.24,1.23,6.08,2.16,1.84,.92,3.54,2.01,5.08,3.26,1.55,1.25,2.98,2.58,4.31,3.98l-5.64,5.97c-2.29-2.36-4.77-4.38-7.46-6.08-2.69-1.69-5.99-2.54-9.89-2.54-2.87,0-5.56,.57-8.07,1.71-2.51,1.14-4.68,2.72-6.52,4.74s-3.28,4.37-4.31,7.06c-1.03,2.68-1.55,5.57-1.55,8.65s.53,5.99,1.6,8.71c1.07,2.72,2.54,5.09,4.42,7.11s4.09,3.6,6.63,4.74,5.32,1.71,8.34,1.71c3.68,0,6.95-.81,9.78-2.43,2.84-1.62,5.4-3.65,7.68-6.08l5.42,5.08c-2.8,3.11-5.88,5.67-9.23,7.69-3.35,2.02-7.5,3.18-12.43,3.48l-7.29,15.81-8.29-3.76,8.62-12.6c-3.46-.59-6.67-1.77-9.62-3.54Z"></path><path class="b" d="M364.68,57.63c-2.76,.77-5.47,1.79-8.12,3.04l-2.54-6.96c3.17-1.47,6.37-2.63,9.62-3.48,3.24-.85,6.96-1.27,11.16-1.27,7.81,0,13.82,1.93,18.02,5.8,4.2,3.87,6.3,9.6,6.3,17.19v34.93h-8.18v-8.62c-1.99,2.58-4.66,4.86-8.01,6.85-3.35,1.99-7.57,2.98-12.66,2.98-2.65,0-5.25-.37-7.79-1.11-2.54-.74-4.83-1.86-6.85-3.37-2.03-1.51-3.65-3.37-4.86-5.58s-1.82-4.83-1.82-7.85,.59-5.69,1.77-8.01c1.18-2.32,2.85-4.25,5.03-5.8,2.17-1.55,4.75-2.72,7.74-3.54,2.98-.81,6.28-1.22,9.89-1.22s6.89,.22,9.62,.66c2.73,.44,5.38,1.03,7.96,1.77v-1.99c0-5.16-1.49-9.04-4.48-11.66-2.98-2.61-7.17-3.92-12.54-3.92-3.39,0-6.47,.39-9.23,1.16Zm-2.72,23.49c-2.87,2.14-4.3,5.05-4.3,8.73,0,1.84,.38,3.46,1.16,4.86,.77,1.4,1.82,2.6,3.14,3.59,1.32,1,2.84,1.75,4.57,2.27,1.73,.52,3.54,.77,5.45,.77,2.64,0,5.12-.39,7.44-1.16,2.31-.77,4.33-1.84,6.06-3.21,1.73-1.36,3.08-2.98,4.08-4.86,.99-1.88,1.49-3.96,1.49-6.25v-5.53c-2.13-.59-4.57-1.14-7.33-1.66-2.76-.51-5.89-.77-9.42-.77-5.36,0-9.47,1.07-12.34,3.21Zm28.09-42.66c-1.62,1.77-3.76,2.65-6.41,2.65-1.25,0-2.54-.21-3.87-.65s-2.65-.92-3.98-1.46-2.58-1.04-3.76-1.51c-1.18-.47-2.25-.7-3.21-.7-1.48,0-2.6,.4-3.37,1.19-.77,.79-1.57,2.17-2.38,4.11l-5.2-1.44c1.11-4.2,2.47-7.18,4.09-8.95,1.62-1.77,3.76-2.65,6.41-2.65,1.25,0,2.54,.24,3.87,.7,1.33,.47,2.65,.97,3.98,1.51,1.33,.54,2.58,1.02,3.76,1.46,1.18,.43,2.25,.65,3.21,.65,1.47,0,2.6-.4,3.37-1.19,.77-.79,1.57-2.17,2.38-4.12l5.2,1.44c-1.11,4.2-2.47,7.18-4.09,8.95Z"></path><path class="b" d="M462.17,89.79c-1.51,3.65-3.59,6.84-6.25,9.56-2.65,2.73-5.82,4.88-9.5,6.47-3.69,1.58-7.67,2.38-11.94,2.38s-8.22-.79-11.83-2.38c-3.61-1.58-6.74-3.72-9.4-6.41-2.65-2.69-4.72-5.84-6.19-9.45-1.47-3.61-2.21-7.44-2.21-11.5s.74-7.9,2.21-11.55c1.47-3.65,3.54-6.83,6.19-9.56,2.65-2.73,5.8-4.88,9.45-6.47,3.65-1.58,7.64-2.38,11.99-2.38s8.23,.79,11.88,2.38c3.65,1.58,6.8,3.72,9.45,6.41,2.65,2.69,4.71,5.84,6.19,9.45,1.47,3.61,2.21,7.44,2.21,11.5s-.76,7.9-2.27,11.55Zm-8.07-20.1c-1.07-2.72-2.56-5.09-4.48-7.11-1.92-2.02-4.16-3.62-6.74-4.8-2.58-1.18-5.38-1.76-8.4-1.76s-5.93,.57-8.51,1.71c-2.58,1.14-4.77,2.72-6.58,4.74-1.81,2.02-3.22,4.37-4.26,7.06-1.03,2.68-1.55,5.57-1.55,8.65s.53,5.99,1.6,8.71c1.07,2.72,2.54,5.07,4.42,7.06s4.11,3.56,6.69,4.74c2.58,1.18,5.38,1.76,8.4,1.76s5.93-.57,8.51-1.71c2.58-1.14,4.79-2.7,6.63-4.69,1.84-1.98,3.28-4.32,4.31-7,1.03-2.68,1.55-5.57,1.55-8.65s-.54-5.99-1.6-8.71Z"></path><path class="b" d="M502.68,89.68c1.18,2.4,2.69,4.42,4.53,6.08,1.84,1.66,3.9,2.91,6.19,3.76,2.28,.85,4.68,1.27,7.18,1.27,3.98,0,7.39-.74,10.22-2.21,2.84-1.47,5.43-3.43,7.79-5.86l5.3,4.75c-2.87,3.24-6.15,5.84-9.84,7.79-3.69,1.95-8.25,2.93-13.71,2.93-3.91,0-7.59-.72-11.05-2.16-3.46-1.44-6.49-3.46-9.09-6.08-2.6-2.62-4.66-5.76-6.19-9.45-1.53-3.68-2.29-7.74-2.29-12.16,0-4.13,.68-8.01,2.04-11.66,1.36-3.65,3.26-6.82,5.69-9.51,2.43-2.69,5.32-4.81,8.68-6.36,3.35-1.55,7.02-2.32,11-2.32,4.2,0,7.96,.79,11.27,2.38,3.32,1.58,6.12,3.74,8.4,6.47,2.28,2.73,4.02,5.93,5.19,9.62,1.18,3.69,1.77,7.63,1.77,11.83v1.22c0,.44-.04,.92-.11,1.44h-45.21c.29,3.09,1.03,5.84,2.21,8.23Zm34.37-14.54c-.22-2.58-.75-5.05-1.59-7.41-.84-2.36-2.01-4.42-3.51-6.19-1.5-1.77-3.33-3.19-5.49-4.26-2.16-1.07-4.67-1.6-7.53-1.6-2.49,0-4.8,.5-6.92,1.49-2.12,1-3.99,2.36-5.6,4.09-1.61,1.73-2.93,3.78-3.96,6.13-1.03,2.36-1.69,4.94-1.98,7.74h36.58Z"></path><path class="b" d="M600.66,55.47c1.29-1.4,2.74-2.62,4.37-3.65,1.62-1.03,3.44-1.84,5.47-2.43,2.03-.59,4.29-.88,6.8-.88,6.63,0,11.83,2.04,15.58,6.13s5.64,9.71,5.64,16.86v35.37h-8.51v-33.38c0-5.53-1.31-9.78-3.92-12.77-2.62-2.98-6.25-4.48-10.89-4.48-2.14,0-4.16,.39-6.08,1.16-1.92,.77-3.59,1.92-5.03,3.43-1.44,1.51-2.58,3.37-3.43,5.58-.85,2.21-1.27,4.72-1.27,7.52v32.94h-8.4v-33.6c0-5.38-1.31-9.56-3.92-12.54-2.62-2.98-6.21-4.48-10.78-4.48-2.29,0-4.38,.44-6.3,1.33-1.92,.88-3.59,2.14-5.03,3.76-1.44,1.62-2.56,3.52-3.37,5.69-.81,2.17-1.22,4.59-1.22,7.24v32.61h-8.51V49.72h8.51v9.62c.96-1.4,2.01-2.76,3.15-4.09,1.14-1.33,2.45-2.49,3.92-3.48,1.47-.99,3.13-1.79,4.97-2.38,1.84-.59,3.98-.88,6.41-.88,4.64,0,8.47,1.09,11.5,3.26,3.02,2.17,5.31,4.88,6.85,8.12,1.03-1.55,2.19-3.02,3.48-4.42Z"></path></g><g><path class="b" d="M202.93,360.08v-86.87c0-10.46-2.23-18.35-6.7-23.68-4.47-5.32-10.88-7.99-19.22-7.99s-14.9,2.67-19.66,7.99c-4.76,5.33-7.13,13.22-7.13,23.68v86.87h-44.27v-86.87c0-10.46-2.24-18.35-6.7-23.68-4.47-5.32-10.88-7.99-19.22-7.99s-14.9,2.67-19.66,7.99c-4.76,5.33-7.14,13.22-7.14,23.68v86.87H8.95V203.96H53.22v22.32c2.52-3.32,5.29-6.5,8.3-9.53,3.01-3.03,6.36-5.72,10.05-8.06,3.69-2.35,7.81-4.21,12.38-5.57,4.56-1.37,9.66-2.06,15.29-2.06,10.29,0,19.17,2.15,26.65,6.45,7.47,4.31,13.25,10.46,17.33,18.48,6.79-8.21,14.37-14.42,22.72-18.63,8.35-4.21,17.86-6.31,28.54-6.31,16.5,0,29.42,4.86,38.74,14.56,9.32,9.71,13.98,23.98,13.98,42.82v101.65h-44.27Z"></path><path class="b" d="M353.8,360.08v-16.89c-5.44,6.02-11.94,10.83-19.51,14.42s-16.8,5.39-27.67,5.39c-7.38,0-14.32-1.02-20.83-3.06-6.51-2.04-12.19-5.1-17.04-9.17-4.86-4.08-8.69-9.08-11.51-15-2.82-5.92-4.22-12.77-4.22-20.53v-.58c0-8.54,1.55-15.92,4.66-22.14,3.1-6.21,7.43-11.36,12.96-15.44,5.53-4.08,12.13-7.14,19.81-9.17,7.67-2.04,16.17-3.06,25.49-3.06,7.96,0,14.9,.58,20.83,1.75,5.92,1.17,11.7,2.72,17.33,4.66v-2.62c0-9.32-2.82-16.41-8.45-21.26-5.63-4.85-13.98-7.28-25.05-7.28-8.55,0-16.07,.73-22.57,2.18-6.51,1.46-13.35,3.54-20.53,6.26l-11.07-33.79c8.54-3.69,17.48-6.7,26.8-9.03s20.58-3.5,33.79-3.5c24.27,0,41.94,5.93,53.01,17.77,11.07,11.85,16.6,28.35,16.6,49.51v90.58h-42.82Zm.87-62.91c-3.89-1.75-8.21-3.15-12.96-4.22-4.76-1.07-9.86-1.6-15.29-1.6-9.52,0-16.99,1.85-22.43,5.53-5.44,3.69-8.16,9.03-8.16,16.02v.58c0,6.02,2.23,10.68,6.7,13.98,4.46,3.3,10.29,4.95,17.48,4.95,10.49,0,18.88-2.52,25.19-7.57,6.31-5.05,9.47-11.65,9.47-19.81v-7.86Z"></path><path class="b" d="M503.22,247.36c-14.76,0-26.36,4.47-34.81,13.4-8.45,8.93-12.67,22.82-12.67,41.65v57.67h-44.27V203.96h44.27v31.46c4.46-10.68,10.58-19.22,18.35-25.63,7.76-6.41,18.25-9.32,31.46-8.74v46.31h-2.33Z"></path><path class="b" d="M610.4,360.08l-40.78-63.79-15.44,16.31v47.48h-44.27V147.45h44.27v113.3l51.84-56.8h53.01l-59.42,61.46,61.46,94.66h-50.68Z"></path><path class="b" d="M804.53,291.92c-.1,1.56-.25,3.4-.44,5.53h-108.64c2.13,10.1,6.55,17.72,13.25,22.86,6.7,5.15,15,7.72,24.9,7.72,7.38,0,13.98-1.26,19.81-3.79,5.83-2.52,11.84-6.6,18.06-12.23l25.34,22.43c-7.38,9.13-16.31,16.26-26.8,21.41-10.49,5.14-22.82,7.72-36.99,7.72-11.65,0-22.48-1.94-32.48-5.83-10-3.88-18.64-9.42-25.92-16.6-7.28-7.18-12.96-15.68-17.04-25.49-4.08-9.8-6.12-20.72-6.12-32.77v-.58c0-11.07,1.89-21.55,5.68-31.46,3.79-9.9,9.08-18.54,15.88-25.92,6.79-7.38,14.9-13.2,24.32-17.48,9.42-4.27,19.85-6.41,31.31-6.41,13.01,0,24.27,2.33,33.79,6.99,9.51,4.66,17.43,10.92,23.74,18.79,6.31,7.86,10.97,16.89,13.98,27.09,3.01,10.19,4.52,20.83,4.52,31.89v.58c0,2.14-.05,3.98-.15,5.53Zm-53.45-46.17c-5.63-6.12-13.11-9.17-22.43-9.17s-16.85,3.01-22.57,9.03c-5.73,6.02-9.47,14.08-11.21,24.17h66.7c-1.36-9.9-4.86-17.91-10.49-24.03Z"></path><path class="b" d="M886.51,360.22c-5.63,1.65-12.14,2.48-19.51,2.48-6.8,0-12.96-.73-18.5-2.18-5.53-1.46-10.29-4.03-14.27-7.72-3.98-3.69-7.09-8.49-9.32-14.42-2.23-5.92-3.35-13.44-3.35-22.57v-73.98h-18.64v-37.86h18.64v-39.9h44.27v39.9h36.7v37.86h-36.7v66.7c0,10.1,4.76,15.15,14.27,15.15,7.76,0,15.05-1.84,21.85-5.53v35.53c-4.66,2.72-9.81,4.91-15.44,6.55Z"></path><path class="b" d="M912.73,186.77v-39.32h46.6v39.32h-46.6Zm1.17,173.3V203.96h44.27v156.12h-44.27Z"></path><path class="b" d="M1075.25,360.08v-86.87c0-10.46-2.33-18.35-6.99-23.68-4.66-5.32-11.26-7.99-19.81-7.99s-15.29,2.67-20.24,7.99c-4.95,5.33-7.43,13.22-7.43,23.68v86.87h-44.27V203.96h44.27v22.32c2.52-3.32,5.29-6.5,8.3-9.53,3.01-3.03,6.36-5.72,10.05-8.06,3.69-2.35,7.76-4.21,12.23-5.57,4.46-1.37,9.51-2.06,15.15-2.06,16.89,0,29.95,5.15,39.18,15.44,9.22,10.29,13.83,24.47,13.83,42.52v101.07h-44.27Z"></path><path class="b" d="M1286.26,362.55c-3.6,10.39-9.03,18.88-16.31,25.49-7.28,6.6-16.36,11.46-27.23,14.56-10.88,3.1-23.59,4.66-38.16,4.66-12.81,0-25.05-1.41-36.7-4.22-11.65-2.82-22.43-6.84-32.33-12.09l15.15-33.2c8.15,4.46,16.36,7.96,24.61,10.49,8.25,2.52,17.62,3.79,28.11,3.79,15.14,0,26.36-3.59,33.64-10.78s10.92-17.77,10.92-31.75v-7.57c-6.6,7.96-13.79,14.18-21.55,18.64-7.77,4.47-17.58,6.7-29.42,6.7-9.13,0-17.87-1.6-26.21-4.81-8.35-3.2-15.73-7.91-22.14-14.13-6.41-6.21-11.5-13.83-15.29-22.86-3.79-9.03-5.68-19.37-5.68-31.02v-.58c0-11.65,1.94-21.99,5.82-31.02,3.88-9.03,9.03-16.65,15.44-22.86,6.41-6.21,13.79-10.92,22.14-14.13,8.35-3.2,16.99-4.81,25.92-4.81,12.04,0,21.94,2.23,29.71,6.7,7.76,4.47,14.66,10,20.68,16.6v-20.39h44.27v120.87c0,14.76-1.8,27.33-5.39,37.72Zm-38.3-88.69c0-5.24-.97-10.09-2.91-14.56-1.94-4.46-4.62-8.3-8.01-11.5-3.4-3.2-7.43-5.68-12.09-7.43-4.66-1.75-9.71-2.62-15.15-2.62s-10.44,.87-15,2.62c-4.57,1.75-8.55,4.22-11.94,7.43-3.4,3.2-6.07,7.04-8.01,11.5-1.94,4.47-2.91,9.32-2.91,14.56v.58c0,10.88,3.59,19.61,10.78,26.21,7.18,6.6,16.21,9.9,27.09,9.9,5.44,0,10.49-.87,15.15-2.62,4.66-1.75,8.69-4.22,12.09-7.43,3.39-3.2,6.07-7.04,8.01-11.5,1.94-4.46,2.91-9.32,2.91-14.56v-.58Z"></path></g></svg>