<svg xmlns="http://www.w3.org/2000/svg" id="a" viewBox="0 0 1238 435"><defs><style>.b{fill:#cb9ac2;}.c{fill:#bc82b4;}.d{fill:#303030;}.e{fill:#af6da8;}</style></defs><rect class="c" x="1010.37" y="48.59" width="102.5" height="102.5"></rect><path class="e" d="M1112.87,48.59h50.94c28.46,0,51.56,23.1,51.56,51.56v50.94h-102.5V48.59h0Z"></path><rect class="b" x="1112.87" y="151.09" width="102.5" height="102.5"></rect><g><path class="d" d="M61.87,49.8v7.29h-18.02v49.63h-8.51V57.1h-7.85v-7.41h7.85v-4.97c0-6.26,1.49-11.01,4.48-14.26,2.98-3.24,7.24-4.86,12.77-4.86,1.99,0,3.7,.11,5.14,.33,1.44,.22,2.86,.59,4.26,1.11v7.41c-1.55-.44-2.95-.79-4.2-1.05-1.25-.26-2.62-.39-4.09-.39-6.63,0-9.95,4.05-9.95,12.16v4.64h18.13Z"></path><path class="d" d="M116.52,89.65c-1.51,3.65-3.59,6.84-6.25,9.56-2.65,2.73-5.82,4.88-9.51,6.47-3.69,1.58-7.66,2.38-11.94,2.38s-8.22-.79-11.83-2.38c-3.61-1.58-6.74-3.72-9.39-6.41-2.65-2.69-4.72-5.84-6.19-9.45-1.48-3.61-2.21-7.44-2.21-11.5s.74-7.9,2.21-11.55c1.47-3.65,3.54-6.83,6.19-9.56,2.65-2.73,5.8-4.88,9.45-6.47,3.65-1.58,7.64-2.38,11.99-2.38s8.24,.79,11.88,2.38c3.65,1.58,6.8,3.72,9.45,6.41,2.65,2.69,4.71,5.84,6.19,9.45,1.47,3.61,2.21,7.44,2.21,11.5s-.76,7.9-2.27,11.55Zm-8.07-20.1c-1.07-2.72-2.56-5.09-4.48-7.11-1.92-2.02-4.16-3.62-6.74-4.8-2.58-1.18-5.38-1.76-8.4-1.76s-5.93,.57-8.51,1.71c-2.58,1.14-4.77,2.72-6.58,4.74-1.81,2.02-3.22,4.37-4.26,7.06-1.03,2.68-1.55,5.57-1.55,8.65s.53,5.99,1.6,8.71,2.54,5.07,4.42,7.06,4.11,3.56,6.69,4.74c2.58,1.18,5.38,1.76,8.4,1.76s5.93-.57,8.51-1.71c2.58-1.14,4.79-2.7,6.63-4.69,1.84-1.98,3.28-4.32,4.31-7,1.03-2.68,1.55-5.57,1.55-8.65s-.54-5.99-1.6-8.71Z"></path><path class="d" d="M133.82,106.72h-8.51V49.58h8.51v14.92c1.03-2.36,2.32-4.53,3.87-6.52,1.55-1.99,3.32-3.7,5.31-5.14,1.99-1.44,4.16-2.52,6.52-3.26,2.36-.74,4.9-1.07,7.63-.99v9.17h-.66c-3.09,0-6.02,.55-8.79,1.66-2.76,1.1-5.18,2.76-7.24,4.97-2.06,2.21-3.68,4.96-4.86,8.23-1.18,3.28-1.77,7.06-1.77,11.33v22.77Z"></path><path class="d" d="M210.03,55.33c1.29-1.4,2.74-2.62,4.37-3.65,1.62-1.03,3.44-1.84,5.47-2.43,2.03-.59,4.29-.88,6.8-.88,6.63,0,11.83,2.04,15.58,6.13s5.64,9.71,5.64,16.86v35.37h-8.51v-33.38c0-5.53-1.31-9.78-3.92-12.77-2.62-2.98-6.25-4.48-10.89-4.48-2.14,0-4.16,.39-6.08,1.16-1.92,.77-3.59,1.92-5.03,3.43-1.44,1.51-2.58,3.37-3.43,5.58-.85,2.21-1.27,4.72-1.27,7.52v32.94h-8.4v-33.6c0-5.38-1.31-9.56-3.92-12.54-2.62-2.98-6.21-4.48-10.78-4.48-2.29,0-4.38,.44-6.3,1.33-1.92,.88-3.59,2.14-5.03,3.76-1.44,1.62-2.56,3.52-3.37,5.69-.81,2.17-1.22,4.59-1.22,7.24v32.61h-8.51V49.58h8.51v9.62c.96-1.4,2.01-2.76,3.15-4.09,1.14-1.33,2.45-2.49,3.92-3.48,1.47-.99,3.13-1.79,4.97-2.38,1.84-.59,3.98-.88,6.41-.88,4.64,0,8.47,1.09,11.5,3.26,3.02,2.17,5.31,4.88,6.85,8.12,1.03-1.55,2.19-3.02,3.48-4.42Z"></path><path class="d" d="M268.94,57.48c-2.76,.77-5.47,1.79-8.12,3.04l-2.54-6.96c3.17-1.47,6.37-2.63,9.62-3.48,3.24-.85,6.96-1.27,11.16-1.27,7.81,0,13.82,1.93,18.02,5.8,4.2,3.87,6.3,9.6,6.3,17.19v34.93h-8.18v-8.62c-1.99,2.58-4.66,4.86-8.01,6.85-3.35,1.99-7.57,2.98-12.66,2.98-2.65,0-5.25-.37-7.79-1.11-2.54-.74-4.83-1.86-6.85-3.37-2.03-1.51-3.65-3.37-4.86-5.58s-1.82-4.83-1.82-7.85,.59-5.69,1.77-8.01c1.18-2.32,2.86-4.25,5.03-5.8,2.17-1.55,4.75-2.72,7.74-3.54,2.98-.81,6.28-1.22,9.89-1.22s6.89,.22,9.62,.66c2.72,.44,5.38,1.03,7.96,1.77v-1.99c0-5.16-1.49-9.04-4.48-11.66-2.98-2.61-7.17-3.92-12.54-3.92-3.39,0-6.47,.39-9.23,1.16Zm-2.72,23.49c-2.87,2.14-4.3,5.05-4.3,8.73,0,1.84,.39,3.46,1.16,4.86,.77,1.4,1.82,2.6,3.14,3.59,1.32,1,2.84,1.75,4.57,2.27,1.73,.52,3.54,.77,5.45,.77,2.64,0,5.12-.39,7.43-1.16s4.33-1.84,6.06-3.21c1.72-1.36,3.08-2.98,4.08-4.86,.99-1.88,1.49-3.96,1.49-6.25v-5.53c-2.13-.59-4.57-1.14-7.33-1.66-2.75-.51-5.89-.77-9.42-.77-5.36,0-9.47,1.07-12.34,3.21Z"></path><path class="d" d="M323.49,103.96c-2.95-1.77-5.49-3.94-7.63-6.52-2.14-2.58-3.8-5.51-4.97-8.79-1.18-3.28-1.77-6.72-1.77-10.33,0-4.05,.73-7.9,2.21-11.55,1.47-3.65,3.52-6.83,6.13-9.56,2.62-2.73,5.71-4.88,9.29-6.47,3.57-1.58,7.46-2.38,11.66-2.38,2.73,0,5.2,.26,7.41,.77,2.21,.52,4.24,1.23,6.08,2.16,1.84,.92,3.54,2.01,5.08,3.26,1.55,1.25,2.98,2.58,4.31,3.98l-5.64,5.97c-2.28-2.36-4.77-4.38-7.46-6.08-2.69-1.69-5.99-2.54-9.89-2.54-2.87,0-5.56,.57-8.07,1.71-2.51,1.14-4.68,2.72-6.52,4.74-1.84,2.02-3.28,4.37-4.31,7.06-1.03,2.68-1.55,5.57-1.55,8.65s.53,5.99,1.6,8.71c1.07,2.72,2.54,5.09,4.42,7.11,1.88,2.02,4.09,3.6,6.63,4.74,2.54,1.14,5.32,1.71,8.35,1.71,3.68,0,6.94-.81,9.78-2.43,2.84-1.62,5.4-3.65,7.68-6.08l5.42,5.08c-2.8,3.11-5.88,5.67-9.23,7.69-3.35,2.02-7.5,3.18-12.44,3.48l-7.29,15.81-8.29-3.76,8.62-12.6c-3.46-.59-6.67-1.77-9.62-3.54Z"></path><path class="d" d="M378.37,57.48c-2.76,.77-5.47,1.79-8.12,3.04l-2.54-6.96c3.17-1.47,6.37-2.63,9.62-3.48,3.24-.85,6.96-1.27,11.16-1.27,7.81,0,13.82,1.93,18.02,5.8,4.2,3.87,6.3,9.6,6.3,17.19v34.93h-8.18v-8.62c-1.99,2.58-4.66,4.86-8.01,6.85-3.35,1.99-7.57,2.98-12.66,2.98-2.65,0-5.25-.37-7.79-1.11-2.54-.74-4.83-1.86-6.85-3.37-2.03-1.51-3.65-3.37-4.86-5.58s-1.82-4.83-1.82-7.85,.59-5.69,1.77-8.01c1.18-2.32,2.86-4.25,5.03-5.8,2.17-1.55,4.75-2.72,7.74-3.54,2.98-.81,6.28-1.22,9.89-1.22s6.89,.22,9.62,.66c2.72,.44,5.38,1.03,7.96,1.77v-1.99c0-5.16-1.49-9.04-4.48-11.66-2.98-2.61-7.17-3.92-12.54-3.92-3.39,0-6.47,.39-9.23,1.16Zm-2.72,23.49c-2.87,2.14-4.3,5.05-4.3,8.73,0,1.84,.39,3.46,1.16,4.86,.77,1.4,1.82,2.6,3.14,3.59,1.32,1,2.84,1.75,4.57,2.27,1.73,.52,3.54,.77,5.45,.77,2.64,0,5.12-.39,7.43-1.16s4.33-1.84,6.06-3.21c1.72-1.36,3.08-2.98,4.08-4.86,.99-1.88,1.49-3.96,1.49-6.25v-5.53c-2.13-.59-4.57-1.14-7.33-1.66-2.75-.51-5.89-.77-9.42-.77-5.36,0-9.47,1.07-12.34,3.21Zm28.09-42.66c-1.62,1.77-3.76,2.65-6.41,2.65-1.25,0-2.54-.21-3.87-.65s-2.65-.92-3.98-1.46-2.58-1.04-3.76-1.51-2.25-.7-3.21-.7c-1.47,0-2.6,.4-3.37,1.19-.77,.79-1.57,2.17-2.38,4.11l-5.19-1.44c1.1-4.2,2.47-7.18,4.09-8.95,1.62-1.77,3.76-2.65,6.41-2.65,1.25,0,2.54,.24,3.87,.7,1.33,.47,2.65,.97,3.98,1.51s2.58,1.02,3.76,1.46c1.18,.43,2.25,.65,3.21,.65,1.47,0,2.6-.4,3.37-1.19,.77-.79,1.56-2.17,2.38-4.12l5.2,1.44c-1.11,4.2-2.47,7.18-4.09,8.95Z"></path><path class="d" d="M475.85,89.65c-1.51,3.65-3.59,6.84-6.24,9.56-2.65,2.73-5.82,4.88-9.51,6.47-3.69,1.58-7.66,2.38-11.94,2.38s-8.22-.79-11.83-2.38c-3.61-1.58-6.74-3.72-9.4-6.41-2.65-2.69-4.72-5.84-6.19-9.45-1.48-3.61-2.21-7.44-2.21-11.5s.73-7.9,2.21-11.55c1.47-3.65,3.54-6.83,6.19-9.56,2.65-2.73,5.8-4.88,9.45-6.47,3.65-1.58,7.64-2.38,11.99-2.38s8.24,.79,11.88,2.38c3.65,1.58,6.8,3.72,9.45,6.41,2.65,2.69,4.71,5.84,6.19,9.45,1.47,3.61,2.21,7.44,2.21,11.5s-.76,7.9-2.27,11.55Zm-8.07-20.1c-1.07-2.72-2.56-5.09-4.48-7.11s-4.16-3.62-6.74-4.8c-2.58-1.18-5.38-1.76-8.4-1.76s-5.93,.57-8.51,1.71c-2.58,1.14-4.77,2.72-6.58,4.74-1.81,2.02-3.22,4.37-4.25,7.06-1.03,2.68-1.55,5.57-1.55,8.65s.53,5.99,1.6,8.71c1.07,2.72,2.54,5.07,4.42,7.06,1.88,1.98,4.11,3.56,6.69,4.74,2.58,1.18,5.38,1.76,8.4,1.76s5.93-.57,8.51-1.71c2.58-1.14,4.79-2.7,6.63-4.69,1.84-1.98,3.28-4.32,4.31-7,1.03-2.68,1.55-5.57,1.55-8.65s-.54-5.99-1.6-8.71Z"></path><path class="d" d="M516.36,89.54c1.18,2.4,2.69,4.42,4.53,6.08s3.91,2.91,6.19,3.76c2.28,.85,4.68,1.27,7.19,1.27,3.98,0,7.39-.74,10.22-2.21,2.83-1.47,5.43-3.43,7.79-5.86l5.31,4.75c-2.87,3.24-6.15,5.84-9.84,7.79-3.69,1.95-8.25,2.93-13.71,2.93-3.91,0-7.59-.72-11.05-2.16-3.46-1.44-6.49-3.46-9.09-6.08-2.6-2.62-4.66-5.76-6.19-9.45-1.53-3.68-2.29-7.74-2.29-12.16,0-4.13,.68-8.01,2.04-11.66s3.26-6.82,5.69-9.51c2.43-2.69,5.32-4.81,8.68-6.36,3.35-1.55,7.02-2.32,11-2.32,4.2,0,7.96,.79,11.27,2.38,3.32,1.58,6.12,3.74,8.4,6.47,2.28,2.73,4.02,5.93,5.2,9.62,1.18,3.69,1.77,7.63,1.77,11.83v1.22c0,.44-.04,.92-.11,1.44h-45.21c.29,3.09,1.03,5.84,2.21,8.23Zm34.38-14.54c-.22-2.58-.75-5.05-1.59-7.41-.84-2.36-2.01-4.42-3.52-6.19s-3.33-3.19-5.49-4.26c-2.16-1.07-4.67-1.6-7.53-1.6-2.49,0-4.8,.5-6.92,1.49-2.12,1-3.99,2.36-5.6,4.09-1.61,1.73-2.93,3.78-3.96,6.13-1.03,2.36-1.69,4.94-1.98,7.74h36.59Z"></path><path class="d" d="M614.34,55.33c1.29-1.4,2.74-2.62,4.37-3.65,1.62-1.03,3.44-1.84,5.47-2.43,2.03-.59,4.29-.88,6.8-.88,6.63,0,11.83,2.04,15.58,6.13s5.64,9.71,5.64,16.86v35.37h-8.51v-33.38c0-5.53-1.31-9.78-3.92-12.77-2.62-2.98-6.25-4.48-10.89-4.48-2.14,0-4.16,.39-6.08,1.16-1.92,.77-3.59,1.92-5.03,3.43-1.44,1.51-2.58,3.37-3.43,5.58-.85,2.21-1.27,4.72-1.27,7.52v32.94h-8.4v-33.6c0-5.38-1.31-9.56-3.92-12.54-2.62-2.98-6.21-4.48-10.78-4.48-2.28,0-4.38,.44-6.3,1.33-1.92,.88-3.59,2.14-5.03,3.76-1.44,1.62-2.56,3.52-3.37,5.69-.81,2.17-1.22,4.59-1.22,7.24v32.61h-8.51V49.58h8.51v9.62c.96-1.4,2.01-2.76,3.15-4.09,1.14-1.33,2.45-2.49,3.92-3.48,1.47-.99,3.13-1.79,4.97-2.38,1.84-.59,3.98-.88,6.41-.88,4.64,0,8.47,1.09,11.5,3.26,3.02,2.17,5.31,4.88,6.85,8.12,1.03-1.55,2.19-3.02,3.48-4.42Z"></path></g><g><path class="d" d="M180.64,316.68c-3.98,10-9.22,18.45-15.73,25.34-6.51,6.9-14.03,12.09-22.57,15.58-8.55,3.5-17.48,5.24-26.8,5.24-11.85,0-21.6-2.31-29.27-6.94-7.67-4.62-14.13-10.02-19.37-16.18v66.81H22.63V203.81h44.27v22.23c5.43-7.32,11.99-13.34,19.66-18.06,7.67-4.72,17.33-7.08,28.98-7.08,9.12,0,17.96,1.75,26.51,5.24,8.54,3.5,16.11,8.69,22.72,15.58,6.6,6.89,11.89,15.34,15.87,25.34,3.98,10,5.97,21.51,5.97,34.51v.58c0,13.01-1.99,24.52-5.97,34.51Zm-38.3-35.1c0-6.45-1.02-12.37-3.06-17.74-2.04-5.38-4.81-9.97-8.3-13.78-3.5-3.81-7.53-6.74-12.09-8.8-4.56-2.05-9.47-3.08-14.71-3.08s-10.15,1.03-14.71,3.08c-4.56,2.05-8.55,4.98-11.94,8.8-3.4,3.81-6.12,8.41-8.15,13.78-2.04,5.37-3.06,11.29-3.06,17.74v.58c0,6.45,1.02,12.37,3.06,17.75,2.04,5.37,4.75,9.97,8.15,13.78,3.4,3.81,7.38,6.74,11.94,8.8,4.56,2.05,9.47,3.08,14.71,3.08s10.14-1.02,14.71-3.08c4.56-2.05,8.59-4.98,12.09-8.8,3.5-3.81,6.26-8.36,8.3-13.63s3.06-11.24,3.06-17.89v-.58Z"></path><path class="d" d="M287.68,247.21c-14.76,0-26.36,4.47-34.81,13.4-8.45,8.93-12.67,22.82-12.67,41.65v57.67h-44.27V203.81h44.27v31.46c4.46-10.68,10.58-19.22,18.35-25.63,7.76-6.41,18.25-9.32,31.46-8.74v46.31h-2.33Z"></path><path class="d" d="M449.33,313.77c-4.27,9.81-10.19,18.4-17.77,25.78-7.57,7.38-16.51,13.21-26.8,17.48-10.29,4.27-21.55,6.41-33.79,6.41s-23.21-2.09-33.5-6.26c-10.29-4.17-19.18-9.9-26.65-17.18-7.48-7.28-13.35-15.82-17.62-25.63-4.27-9.8-6.41-20.34-6.41-31.6v-.58c0-11.26,2.13-21.79,6.41-31.6,4.27-9.8,10.2-18.39,17.77-25.78,7.57-7.38,16.5-13.2,26.8-17.48,10.29-4.27,21.55-6.41,33.79-6.41s23.2,2.09,33.5,6.26c10.29,4.18,19.17,9.9,26.65,17.18,7.47,7.28,13.35,15.83,17.62,25.63,4.27,9.81,6.41,20.34,6.41,31.6v.58c0,11.26-2.14,21.8-6.41,31.6Zm-37.28-31.6c0-5.83-.97-11.31-2.91-16.46-1.94-5.14-4.76-9.71-8.45-13.69-3.69-3.98-8.06-7.14-13.11-9.47-5.05-2.33-10.58-3.5-16.6-3.5-6.41,0-12.09,1.12-17.04,3.35-4.95,2.23-9.17,5.29-12.67,9.17-3.49,3.89-6.17,8.4-8.01,13.54-1.85,5.15-2.77,10.63-2.77,16.46v.58c0,5.83,.97,11.31,2.91,16.46,1.94,5.15,4.76,9.71,8.45,13.69,3.69,3.98,8.01,7.14,12.96,9.47,4.95,2.33,10.53,3.5,16.75,3.5s12.09-1.12,17.04-3.35c4.95-2.23,9.18-5.29,12.67-9.17,3.5-3.88,6.16-8.4,8.01-13.54,1.84-5.14,2.77-10.63,2.77-16.46v-.58Z"></path><path class="d" d="M498.11,395.32c-8.45,8.05-20.93,12.09-37.43,12.09-4.08,0-7.53-.15-10.34-.44-2.82-.29-5.78-.73-8.88-1.31v-34.66c3.5,.58,6.6,.87,9.32,.87,4.66,0,8.45-1.36,11.36-4.08,2.91-2.72,4.37-7.38,4.37-13.98V203.81h44.27v153.5c0,17.28-4.22,29.95-12.67,38.01Zm-32.77-208.69v-39.32h46.6v39.32h-46.6Z"></path><path class="d" d="M674.61,291.77c-.1,1.56-.25,3.4-.44,5.53h-108.64c2.13,10.1,6.55,17.72,13.25,22.86,6.7,5.15,15,7.72,24.9,7.72,7.38,0,13.98-1.26,19.81-3.79,5.82-2.52,11.84-6.6,18.06-12.23l25.34,22.43c-7.38,9.13-16.31,16.26-26.8,21.41s-22.82,7.72-36.99,7.72c-11.65,0-22.48-1.94-32.48-5.83-10-3.88-18.64-9.42-25.92-16.6-7.28-7.18-12.96-15.68-17.04-25.49-4.08-9.8-6.12-20.72-6.12-32.77v-.58c0-11.07,1.89-21.55,5.68-31.46,3.79-9.9,9.08-18.54,15.87-25.92,6.79-7.38,14.9-13.2,24.32-17.48,9.42-4.27,19.85-6.41,31.31-6.41,13.01,0,24.27,2.33,33.79,6.99,9.51,4.66,17.43,10.92,23.74,18.79,6.31,7.86,10.97,16.89,13.98,27.09,3.01,10.19,4.51,20.83,4.51,31.89v.58c0,2.14-.05,3.98-.15,5.53Zm-53.45-46.17c-5.63-6.12-13.11-9.17-22.43-9.17s-16.85,3.01-22.57,9.03c-5.73,6.02-9.47,14.08-11.21,24.17h66.7c-1.36-9.9-4.86-17.91-10.48-24.03Z"></path><path class="d" d="M756.6,360.08c-5.63,1.65-12.14,2.48-19.51,2.48-6.8,0-12.96-.73-18.5-2.18-5.53-1.46-10.29-4.03-14.27-7.72-3.98-3.69-7.09-8.49-9.32-14.42-2.23-5.92-3.35-13.44-3.35-22.57v-73.98h-18.64v-37.86h18.64v-39.9h44.27v39.9h36.7v37.86h-36.7v66.7c0,10.1,4.76,15.15,14.27,15.15,7.76,0,15.05-1.84,21.84-5.53v35.53c-4.66,2.72-9.81,4.91-15.44,6.55Z"></path><path class="d" d="M936.89,313.77c-4.27,9.81-10.19,18.4-17.77,25.78-7.57,7.38-16.51,13.21-26.8,17.48-10.29,4.27-21.55,6.41-33.79,6.41s-23.21-2.09-33.5-6.26c-10.29-4.17-19.18-9.9-26.65-17.18-7.48-7.28-13.35-15.82-17.62-25.63-4.27-9.8-6.41-20.34-6.41-31.6v-.58c0-11.26,2.13-21.79,6.41-31.6,4.27-9.8,10.19-18.39,17.77-25.78,7.57-7.38,16.5-13.2,26.8-17.48,10.29-4.27,21.55-6.41,33.79-6.41s23.2,2.09,33.5,6.26c10.29,4.18,19.17,9.9,26.65,17.18,7.47,7.28,13.35,15.83,17.62,25.63,4.27,9.81,6.41,20.34,6.41,31.6v.58c0,11.26-2.14,21.8-6.41,31.6Zm-37.28-31.6c0-5.83-.97-11.31-2.91-16.46-1.94-5.14-4.76-9.71-8.45-13.69-3.69-3.98-8.06-7.14-13.11-9.47-5.05-2.33-10.59-3.5-16.6-3.5-6.41,0-12.09,1.12-17.04,3.35-4.95,2.23-9.18,5.29-12.67,9.17-3.5,3.89-6.17,8.4-8.01,13.54-1.85,5.15-2.77,10.63-2.77,16.46v.58c0,5.83,.97,11.31,2.91,16.46,1.94,5.15,4.76,9.71,8.45,13.69,3.69,3.98,8.01,7.14,12.96,9.47s10.53,3.5,16.75,3.5,12.09-1.12,17.04-3.35c4.95-2.23,9.17-5.29,12.67-9.17,3.49-3.88,6.16-8.4,8.01-13.54,1.84-5.14,2.77-10.63,2.77-16.46v-.58Z"></path><path class="d" d="M1061.98,335.03c-3.01,6.31-7.24,11.5-12.67,15.58-5.44,4.08-11.8,7.14-19.08,9.17s-15.1,3.06-23.45,3.06c-11.07,0-22.38-1.89-33.93-5.68-11.56-3.79-22.57-9.76-33.06-17.91l18.93-29.13c8.54,6.22,17.04,10.88,25.49,13.98,8.45,3.11,16.36,4.66,23.74,4.66,6.41,0,11.11-1.07,14.12-3.2,3.01-2.13,4.52-4.95,4.52-8.45v-.58c0-2.33-.88-4.37-2.62-6.12-1.75-1.75-4.13-3.25-7.14-4.51-3.01-1.26-6.46-2.48-10.34-3.64-3.89-1.17-7.96-2.43-12.23-3.79-5.44-1.55-10.92-3.45-16.46-5.68-5.53-2.23-10.54-5.14-15-8.74-4.47-3.59-8.11-8.01-10.92-13.25-2.82-5.24-4.22-11.65-4.22-19.22v-.58c0-7.96,1.5-15,4.52-21.12,3.01-6.12,7.09-11.31,12.23-15.58,5.14-4.27,11.16-7.47,18.06-9.61,6.89-2.13,14.32-3.2,22.28-3.2,9.9,0,19.95,1.6,30.15,4.81,10.19,3.2,19.56,7.62,28.11,13.25l-16.89,30.58c-7.77-4.46-15.34-8.01-22.72-10.63-7.38-2.62-13.88-3.93-19.51-3.93s-9.52,1.02-12.23,3.06c-2.72,2.04-4.08,4.61-4.08,7.72v.58c0,2.14,.87,4.03,2.62,5.68,1.75,1.65,4.08,3.2,6.99,4.66s6.26,2.87,10.05,4.22c3.79,1.36,7.81,2.72,12.09,4.08,5.43,1.75,10.97,3.84,16.6,6.26,5.63,2.43,10.68,5.39,15.14,8.88,4.46,3.5,8.16,7.77,11.07,12.82,2.91,5.05,4.37,11.17,4.37,18.35v.58c0,8.74-1.51,16.26-4.51,22.57Z"></path></g></svg>